<?xml version="1.0" encoding="UTF-8" standalone="no"?>
<svg
   xmlns:dc="http://purl.org/dc/elements/1.1/"
   xmlns:cc="http://creativecommons.org/ns#"
   xmlns:rdf="http://www.w3.org/1999/02/22-rdf-syntax-ns#"
   xmlns:svg="http://www.w3.org/2000/svg"
   xmlns="http://www.w3.org/2000/svg"
   version="1.1"
   id="svg2"
   height="113.52205"
   width="311.10345">
  <defs
     id="defs4" />
  <metadata
     id="metadata7">
    <rdf:RDF>
      <cc:Work
         rdf:about="">
        <dc:format>image/svg+xml</dc:format>
        <dc:type
           rdf:resource="http://purl.org/dc/dcmitype/StillImage" />
        <dc:title></dc:title>
      </cc:Work>
    </rdf:RDF>
  </metadata>
  <g
     transform="translate(-47.467134,-288.0765)"
     id="layer1">
    <g
       transform="translate(-26.428571,-8.5714286)"
       id="text3001"
       style="font-style:normal;font-variant:normal;font-weight:900;font-stretch:normal;font-size:88.30750275px;line-height:473.00000191%;font-family:'Snell Roundhand';-inkscape-font-specification:'Snell Roundhand Heavy';text-align:start;letter-spacing:0px;word-spacing:0px;writing-mode:lr-tb;text-anchor:start;fill:#ffffff;fill-opacity:1;stroke:none">
      <path
         id="path4148"
         style="fill:#ffffff"
         d="m 144.4534,327.24924 q 0,-3.35569 -1.67784,-5.65168 -1.58954,-2.38431 -5.21015,-2.38431 -3.35568,0 -5.47506,2.56092 -2.11938,2.47261 -3.35569,6.79968 -1.2363,4.32707 -1.76615,10.15536 -0.44153,5.73999 -0.44153,12.36305 0,7.50614 -2.11938,13.42274 -2.03108,5.9166 -6.09322,10.06706 -3.97384,4.06214 -9.89044,6.26983 -5.8283,2.11938 -13.422742,2.11938 -4.150453,0 -7.947675,-1.05969 -3.797223,-1.05969 -6.711371,-3.09076 -2.914147,-2.03108 -4.680297,-5.03353 -1.76615,-3.00246 -1.76615,-6.97629 0,-1.67785 0.35323,-3.444 0.441537,-1.76615 1.324612,-3.17907 0.883075,-1.50122 2.295995,-2.3843 1.41292,-0.97138 3.355685,-0.97138 2.47261,0 4.062145,1.58953 1.677843,1.50123 1.677843,3.88553 0,2.38431 -1.324613,4.06215 -1.324612,1.58953 -3.797222,1.76615 -0.264923,0.97138 -0.35323,1.67784 0,0.70646 0,1.50123 0,1.67784 0.794767,3.62061 0.883075,1.85445 2.47261,3.44399 1.677843,1.58953 4.150453,2.64922 2.47261,0.97139 5.739988,0.88308 4.59199,-0.0883 7.859372,-1.58954 3.26737,-1.50122 5.47506,-3.97383 2.296,-2.56092 3.62061,-5.8283 1.41292,-3.35568 2.11938,-6.97629 0.79477,-3.70892 1.05969,-7.50614 0.26492,-3.88553 0.26492,-7.41783 0,-6.26983 1.41292,-11.8332 1.50123,-5.65168 4.59199,-9.80214 3.17907,-4.23876 8.03598,-6.71137 4.94522,-2.47261 11.92152,-2.47261 2.3843,0 4.7686,0.52985 2.47261,0.52984 4.41538,1.76615 2.03107,1.148 3.26737,3.09076 1.23631,1.85446 1.23631,4.59199 0,2.82584 -1.50123,4.59199 -1.41292,1.67784 -3.62061,2.64923 -2.20768,0.88307 -4.7686,1.2363 -2.56092,0.26492 -4.76861,0.26492 2.11938,-1.85445 3.26738,-4.15045 1.148,-2.29599 1.148,-5.12183 z" />
      <path
         id="path4150"
         style="fill:#ffffff"
         d="m 136.69338,351.88703 0.61815,-1.41292 7.32952,0 7.50614,-12.80459 12.27474,-0.44154 -7.94767,13.24613 12.09813,0 -0.70646,1.41292 -12.18644,0 q -1.2363,2.11938 -3.44399,5.56337 -2.11938,3.44399 -4.23876,7.15291 -2.11938,3.70891 -3.70892,7.15291 -1.58953,3.44399 -1.58953,5.65168 0,1.50122 0.79477,2.20768 0.88307,0.70646 2.3843,0.70646 2.29599,0 4.85691,-1.2363 2.56092,-1.32461 5.12184,-3.35569 2.64922,-2.03107 5.03352,-4.50368 2.47261,-2.56092 4.59199,-5.03353 2.20769,-2.47261 3.97384,-4.59199 1.76615,-2.20768 2.82584,-3.5323 l 0.70646,0.35323 q -3.00245,3.5323 -6.35814,7.77106 -3.35568,4.23876 -7.24121,7.94768 -3.88553,3.62061 -8.38922,6.09322 -4.50368,2.3843 -9.80213,2.3843 -4.06214,0 -6.09322,-2.11938 -1.94276,-2.20769 -1.94276,-5.65168 0,-1.76615 0.44154,-3.44399 0.52984,-1.76615 1.76615,-4.23876 1.2363,-2.56092 3.26737,-6.18153 2.03108,-3.62061 5.21015,-9.09567 l -7.15291,0 z" />
      <path
         id="path4152"
         style="fill:#ffffff"
         d="m 186.67818,349.06119 q -0.61815,1.32461 -2.03107,3.62061 -1.41292,2.29599 -3.17907,5.03352 -1.76615,2.73754 -3.62061,5.73999 -1.85445,2.91415 -3.44399,5.65168 -1.50123,2.64923 -2.47261,4.85691 -0.97138,2.11938 -0.97138,3.26738 0,1.05969 0.44154,1.94277 0.44153,0.79476 1.58953,0.79476 1.76615,0 4.06215,-1.58953 2.3843,-1.58954 4.85691,-4.15045 2.47261,-2.56092 4.85691,-5.65168 2.3843,-3.17907 4.06215,-6.18153 l 6.97629,-12.27474 12.45136,-0.35323 q -4.59199,7.85937 -9.18398,15.3655 -4.59199,7.50614 -9.09568,14.74736 l 0.17662,0.17661 q 2.73753,-0.97138 6.35814,-3.17907 3.62061,-2.29599 7.41783,-5.29845 3.79722,-3.09076 7.41783,-6.71137 3.70891,-3.70891 6.44645,-7.50614 l 0.70646,0.52985 q -1.58954,2.20769 -4.50369,5.47506 -2.91414,3.26738 -6.79967,6.71137 -3.79723,3.35569 -8.38922,6.44645 -4.59199,3.09076 -9.53721,4.94522 -3.44399,6.35814 -7.77106,11.65659 -4.32706,5.29845 -9.62551,9.00737 -5.29845,3.79722 -11.56829,5.9166 -6.35814,2.11938 -13.86427,2.11938 -2.82584,0 -5.91661,-0.70646 -3.17907,-0.70646 -5.73999,-2.20769 -2.64922,-1.50122 -4.32706,-3.88553 -1.67785,-2.3843 -1.67785,-5.82829 0,-2.73753 1.32462,-4.85692 1.2363,-2.11938 3.26737,-3.5323 2.03108,-1.41292 4.59199,-2.11938 2.47261,-0.70646 4.85692,-0.70646 3.70891,0 7.59444,0.79477 l 0,0.79477 q -0.52984,-0.17662 -1.32461,-0.17662 -0.88307,0 -1.58953,0 -2.296,0 -3.79723,0.79477 -1.58953,0.88308 -2.47261,2.20769 -0.97138,1.41292 -1.41292,3.26738 -0.44154,1.85446 -0.44154,3.88553 0,5.29845 2.38431,8.2126 2.3843,3.00245 6.53475,3.00245 4.06215,0 7.85937,-2.11938 3.79722,-2.03107 7.15291,-5.38676 3.44399,-3.26737 6.53475,-7.50614 3.09077,-4.23876 5.8283,-8.65413 2.73753,-4.32707 5.12183,-8.38921 2.47261,-4.15046 4.59199,-7.15291 l -0.17661,-0.17662 q -1.67784,2.03108 -3.70892,4.32707 -1.94276,2.296 -4.41537,4.23876 -2.3843,1.85446 -5.21014,3.09076 -2.82584,1.23631 -6.09322,1.23631 -1.67784,0 -2.91415,-0.61815 -1.148,-0.61816 -1.94276,-1.67785 -0.79477,-1.05969 -1.148,-2.3843 -0.35323,-1.41292 -0.35323,-2.82584 0,-3.26738 1.50123,-6.62306 1.58953,-3.44399 3.6206,-6.71137 2.11938,-3.35569 4.23876,-6.35814 2.11938,-3.09076 3.35569,-5.65168 l 12.53966,-0.70646 z" />
      <path
         id="path4154"
         style="fill:#ffffff"
         d="m 251.77047,319.21325 q -8.83075,14.65905 -15.10058,24.81441 -6.26984,10.15536 -10.33198,17.04335 -3.97384,6.79968 -5.9166,10.86182 -1.85446,3.97384 -1.85446,6.35814 0,0.97138 0.52984,1.50123 0.61816,0.52984 1.32462,0.52984 2.03107,0 5.12183,-2.20768 3.09076,-2.296 6.35814,-5.65168 3.35569,-3.35569 6.44645,-7.15291 3.09076,-3.88553 5.12184,-7.0646 l 0.70646,0.35323 q -0.61816,0.88307 -2.03108,3.00245 -1.41292,2.11938 -3.5323,4.85692 -2.11938,2.64922 -4.7686,5.47506 -2.56092,2.82584 -5.47507,5.21014 -2.82584,2.38431 -5.9166,3.97384 -3.00246,1.50123 -6.00491,1.50123 -3.70892,0 -5.56337,-1.85446 -1.85446,-1.85446 -1.85446,-4.6803 0,-1.94276 0.61815,-4.06214 0.61815,-2.20769 1.94277,-5.12184 1.41292,-3.00245 3.6206,-6.97629 2.296,-4.06214 5.56338,-9.62552 3.35568,-5.56337 7.77106,-12.9812 4.50368,-7.41783 10.24367,-17.21996 l 12.9812,-0.88308 z" />
      <path
         id="path4156"
         style="fill:#ffffff"
         d="m 258.51219,349.76765 q -2.82584,4.50368 -5.56337,8.74244 -2.73753,4.23876 -4.85691,7.94768 -2.11938,3.6206 -3.44399,6.44644 -1.23631,2.82584 -1.23631,4.50369 0,1.2363 0.44154,2.11938 0.44154,0.79476 1.58953,0.79476 1.76615,0 3.79723,-1.2363 2.11938,-1.32461 4.32706,-3.26738 2.20769,-2.03107 4.41538,-4.50368 2.20769,-2.56092 4.15045,-4.94522 1.94277,-2.47261 3.44399,-4.59199 1.58954,-2.20769 2.56092,-3.5323 l 0.70646,0.26492 q -2.11938,3.00246 -5.29845,7.32952 -3.17907,4.23876 -7.15291,8.30091 -4.06214,4.15045 -7.50613,6.35814 -3.444,2.11938 -7.68276,2.11938 -3.6206,0 -5.47506,-2.03107 -1.85446,-2.11938 -1.85446,-5.8283 0,-3.97384 3.35569,-9.89044 3.44399,-6.00491 8.65413,-14.74735 l 12.62797,-0.35323 z m -4.50368,-13.77597 q 0,-2.56092 1.76615,-4.32707 1.85446,-1.85446 4.41538,-1.85446 2.56091,0 4.32706,1.85446 1.85446,1.76615 1.85446,4.32707 0,2.56092 -1.85446,4.41537 -1.76615,1.76615 -4.32706,1.76615 -2.56092,0 -4.41538,-1.76615 -1.76615,-1.85445 -1.76615,-4.41537 z" />
      <path
         id="path4158"
         style="fill:#ffffff"
         d="m 305.07647,358.77501 q -3.26738,4.85692 -6.97629,9.18398 -3.62061,4.32707 -8.12429,7.59445 -4.50368,3.26738 -10.06706,5.21014 -5.56337,1.85446 -12.71628,1.85446 -2.64922,0 -5.03353,-0.52985 -2.29599,-0.52984 -3.97383,-1.67784 -1.67785,-1.148 -2.64923,-2.91415 -0.97138,-1.85445 -0.97138,-4.32706 0,-3.26738 2.11938,-5.12184 2.03107,-1.94276 4.7686,-1.94276 1.85446,0 3.17908,1.05969 1.32461,1.05969 1.32461,3.17907 0,1.94276 -1.148,2.91414 -1.148,0.97139 -2.56092,0.97139 -1.05969,0 -1.76615,-0.26493 -0.44154,0.70646 -0.44154,1.67785 0,2.82584 1.50123,4.41537 1.50123,1.50123 4.41538,1.50123 3.79722,0 5.65168,-2.20769 1.85446,-2.20769 1.85446,-5.29845 0,-1.85446 -1.148,-3.62061 -1.148,-1.76615 -2.56092,-3.5323 -1.32461,-1.85445 -2.47261,-3.6206 -1.148,-1.85446 -1.148,-3.70892 0,-2.11938 0.97139,-4.06214 0.97138,-1.94277 2.82584,-3.444 1.94276,-1.58953 4.68029,-2.47261 2.73754,-0.88307 6.26984,-0.88307 5.12183,0 8.3009,1.76615 3.26738,1.67784 3.26738,4.94522 0,2.47261 -1.67784,4.06214 -1.67785,1.50123 -3.97384,1.50123 -2.03107,0 -3.79722,-1.05969 0.61815,-0.97138 0.97138,-2.03107 0.35323,-1.05969 0.35323,-2.3843 0,-2.20769 -1.05969,-3.97384 -0.97138,-1.76615 -3.26738,-1.76615 -2.03107,0 -3.17907,1.41292 -1.148,1.41292 -1.148,3.70891 0,2.20769 1.32462,4.15046 1.32461,1.85445 2.82584,3.70891 1.58953,1.85446 2.91414,3.88553 1.32462,2.03107 1.32462,4.59199 0,3.00246 -1.41292,5.12184 -1.32462,2.03107 -4.15046,3.6206 l 0.17662,0.17662 q 3.79722,-1.05969 7.41783,-3.26738 3.70891,-2.29599 7.0646,-5.29845 3.35568,-3.00245 6.18152,-6.44645 2.91415,-3.5323 5.12184,-7.0646 l 0.61815,0.70646 z" />
      <path
         id="path4160"
         style="fill:#ffffff"
         d="m 298.64796,351.88703 0.61815,-1.41292 7.32952,0 7.50614,-12.80459 12.27474,-0.44154 -7.94767,13.24613 12.09812,0 -0.70646,1.41292 -12.18643,0 q -1.23631,2.11938 -3.44399,5.56337 -2.11938,3.44399 -4.23876,7.15291 -2.11938,3.70891 -3.70892,7.15291 -1.58953,3.44399 -1.58953,5.65168 0,1.50122 0.79476,2.20768 0.88308,0.70646 2.38431,0.70646 2.29599,0 4.85691,-1.2363 2.56092,-1.32461 5.12183,-3.35569 2.64923,-2.03107 5.03353,-4.50368 2.47261,-2.56092 4.59199,-5.03353 2.20769,-2.47261 3.97384,-4.59199 1.76615,-2.20768 2.82584,-3.5323 l 0.70646,0.35323 q -3.00246,3.5323 -6.35814,7.77106 -3.35569,4.23876 -7.24122,7.94768 -3.88553,3.62061 -8.38921,6.09322 -4.50368,2.3843 -9.80213,2.3843 -4.06215,0 -6.09322,-2.11938 -1.94276,-2.20769 -1.94276,-5.65168 0,-1.76615 0.44153,-3.44399 0.52985,-1.76615 1.76615,-4.23876 1.23631,-2.56092 3.26738,-6.18153 2.03107,-3.62061 5.21014,-9.09567 l -7.1529,0 z" />
    </g>
    <path
       id="path3005"
       d="M 336.78558,288.0765 A 21.785417,21.785417 0 0 0 315,309.86209 a 21.785417,21.785417 0 0 0 2.63908,10.35114 c -0.16316,-0.58861 -0.24759,-1.22032 -0.24759,-1.89866 0,-0.52927 0.056,-1.07248 0.16739,-1.62959 0.13927,-0.55711 0.34793,-1.05895 0.62649,-1.50464 0.27856,-0.47355 0.64109,-0.84949 1.08678,-1.12805 0.44569,-0.30641 0.97492,-0.4597 1.58775,-0.4597 0.77996,0 1.42051,0.25062 1.92191,0.75203 0.52926,0.47355 0.79387,1.08671 0.79387,1.83881 0,0.7521 -0.20924,1.39265 -0.62707,1.92191 -0.41784,0.50141 -1.01643,0.78001 -1.79639,0.83572 -0.0836,0.30641 -0.13952,0.57103 -0.16738,0.79388 l 0,0.71018 c 0,0.52926 0.12532,1.10045 0.37603,1.71327 0.27854,0.58497 0.66848,1.12819 1.16988,1.6296 0.52925,0.50139 1.18438,0.9193 1.96434,1.25357 0.77996,0.30641 1.68513,0.44572 2.71578,0.41785 1.4485,-0.0279 2.68823,-0.27847 3.71889,-0.75202 1.03065,-0.47355 1.89386,-1.1007 2.59026,-1.88065 0.72424,-0.80782 1.29543,-1.72698 1.71327,-2.75763 0.44569,-1.05851 0.77967,-2.15895 1.00251,-3.30102 0.2507,-1.16993 0.41798,-2.35373 0.50155,-3.55152 0.0836,-1.22564 0.12553,-2.39543 0.12553,-3.50965 0,-1.97775 0.22265,-3.84406 0.66834,-5.59896 0.47355,-1.78275 1.19803,-3.32849 2.17298,-4.6377 1.0028,-1.33707 2.26993,-2.39554 3.80199,-3.17549 1.55991,-0.77996 3.44021,-1.17047 5.64079,-1.17047 0.75211,0 1.50399,0.0839 2.25609,0.25107 0.77995,0.16713 1.47647,0.44573 2.08929,0.83571 0.18938,0.10704 0.36662,0.22615 0.53409,0.3551 a 21.785417,21.785417 0 0 0 -17.24087,-8.48968 z m 10.73182,7.71673 c -1.05852,0 -1.92173,0.40391 -2.59026,1.21173 -0.66854,0.77995 -1.19777,1.8524 -1.58775,3.21733 -0.38998,1.36492 -0.66858,2.96661 -0.83571,4.80508 -0.13928,1.81061 -0.20923,3.76027 -0.20923,5.84943 0,2.36773 -0.33397,4.48466 -1.0025,6.35098 -0.64069,1.86632 -1.60182,3.45403 -2.88317,4.76324 -1.2535,1.28136 -2.81322,2.27047 -4.67955,2.96685 -1.83846,0.66854 -3.95598,1.00251 -6.35156,1.00251 -1.30921,0 -2.56235,-0.16669 -3.76014,-0.50097 -1.19779,-0.33426 -2.25626,-0.82211 -3.17549,-1.46278 -0.22039,-0.15361 -0.42983,-0.31639 -0.6294,-0.48761 a 21.785417,21.785417 0 0 0 16.97294,8.13807 21.785417,21.785417 0 0 0 21.78501,-21.785 21.785417,21.785417 0 0 0 -3.06914,-11.10143 c 0.0799,0.33379 0.12204,0.69474 0.12204,1.08561 0,0.89138 -0.23664,1.61529 -0.71018,2.1724 -0.44569,0.52926 -1.01689,0.94717 -1.71328,1.25358 -0.69638,0.27855 -1.44827,0.47381 -2.25608,0.58523 -0.80782,0.0836 -1.56028,0.12495 -2.25667,0.12495 0.66854,-0.58496 1.18378,-1.23951 1.5459,-1.96376 0.36213,-0.72424 0.54339,-1.53208 0.54339,-2.42346 0,-1.05851 -0.26461,-1.9497 -0.79387,-2.67394 -0.5014,-0.75211 -1.32323,-1.12804 -2.4653,-1.12804 z"
       style="opacity:0.96000001;fill:#ffffff;fill-opacity:1;stroke:none" />
  </g>
</svg>
