<?xml version="1.0" encoding="UTF-8" standalone="no"?>
<!-- Created with Inkscape (http://www.inkscape.org/) -->

<svg
   xmlns:dc="http://purl.org/dc/elements/1.1/"
   xmlns:cc="http://creativecommons.org/ns#"
   xmlns:rdf="http://www.w3.org/1999/02/22-rdf-syntax-ns#"
   xmlns:svg="http://www.w3.org/2000/svg"
   xmlns="http://www.w3.org/2000/svg"
   xmlns:sodipodi="http://sodipodi.sourceforge.net/DTD/sodipodi-0.dtd"
   xmlns:inkscape="http://www.inkscape.org/namespaces/inkscape"
   width="344.22806"
   height="95.664925"
   id="svg2"
   version="1.1"
   inkscape:version="0.91 r13725"
   sodipodi:docname="logo-inv-2.svg"
   inkscape:export-filename="/Users/anami/Google Drive/anam.hussain/Google Drive/Design/stylist/logo150.png"
   inkscape:export-xdpi="32.400002"
   inkscape:export-ydpi="32.400002">
  <defs
     id="defs4" />
  <sodipodi:namedview
     id="base"
     pagecolor="#ffffff"
     bordercolor="#666666"
     borderopacity="1.0"
     inkscape:pageopacity="0.0"
     inkscape:pageshadow="2"
     inkscape:zoom="1.4"
     inkscape:cx="264.37956"
     inkscape:cy="-87.23958"
     inkscape:document-units="px"
     inkscape:current-layer="layer1"
     showgrid="false"
     inkscape:window-width="1440"
     inkscape:window-height="800"
     inkscape:window-x="0"
     inkscape:window-y="1"
     inkscape:window-maximized="1"
     fit-margin-top="0"
     fit-margin-left="0"
     fit-margin-right="0"
     fit-margin-bottom="0" />
  <metadata
     id="metadata7">
    <rdf:RDF>
      <cc:Work
         rdf:about="">
        <dc:format>image/svg+xml</dc:format>
        <dc:type
           rdf:resource="http://purl.org/dc/dcmitype/StillImage" />
        <dc:title></dc:title>
      </cc:Work>
    </rdf:RDF>
  </metadata>
  <g
     inkscape:label="Layer 1"
     inkscape:groupmode="layer"
     id="layer1"
     transform="translate(35.714288,-305.93363)">
    <g
       style="font-style:normal;font-variant:normal;font-weight:900;font-stretch:normal;font-size:88.30750275px;line-height:473.00000191%;font-family:'Snell Roundhand';-inkscape-font-specification:'Snell Roundhand Heavy';text-align:start;letter-spacing:0px;word-spacing:0px;writing-mode:lr-tb;text-anchor:start;fill:#ffffff;fill-opacity:1;stroke:none"
       id="text3001"
       transform="translate(-26.428571,-8.5714286)">
      <path
         d="m 144.4534,327.24924 q 0,-3.35569 -1.67784,-5.65168 -1.58954,-2.38431 -5.21015,-2.38431 -3.35568,0 -5.47506,2.56092 -2.11938,2.47261 -3.35569,6.79968 -1.2363,4.32707 -1.76615,10.15536 -0.44153,5.73999 -0.44153,12.36305 0,7.50614 -2.11938,13.42274 -2.03108,5.9166 -6.09322,10.06706 -3.97384,4.06214 -9.89044,6.26983 -5.8283,2.11938 -13.422742,2.11938 -4.150453,0 -7.947675,-1.05969 -3.797223,-1.05969 -6.711371,-3.09076 -2.914147,-2.03108 -4.680297,-5.03353 -1.76615,-3.00246 -1.76615,-6.97629 0,-1.67785 0.35323,-3.444 0.441537,-1.76615 1.324612,-3.17907 0.883075,-1.50122 2.295995,-2.3843 1.41292,-0.97138 3.355685,-0.97138 2.47261,0 4.062145,1.58953 1.677843,1.50123 1.677843,3.88553 0,2.38431 -1.324613,4.06215 -1.324612,1.58953 -3.797222,1.76615 -0.264923,0.97138 -0.35323,1.67784 0,0.70646 0,1.50123 0,1.67784 0.794767,3.62061 0.883075,1.85445 2.47261,3.44399 1.677843,1.58953 4.150453,2.64922 2.47261,0.97139 5.739988,0.88308 4.59199,-0.0883 7.859372,-1.58954 3.26737,-1.50122 5.47506,-3.97383 2.296,-2.56092 3.62061,-5.8283 1.41292,-3.35568 2.11938,-6.97629 0.79477,-3.70892 1.05969,-7.50614 0.26492,-3.88553 0.26492,-7.41783 0,-6.26983 1.41292,-11.8332 1.50123,-5.65168 4.59199,-9.80214 3.17907,-4.23876 8.03598,-6.71137 4.94522,-2.47261 11.92152,-2.47261 2.3843,0 4.7686,0.52985 2.47261,0.52984 4.41538,1.76615 2.03107,1.148 3.26737,3.09076 1.23631,1.85446 1.23631,4.59199 0,2.82584 -1.50123,4.59199 -1.41292,1.67784 -3.62061,2.64923 -2.20768,0.88307 -4.7686,1.2363 -2.56092,0.26492 -4.76861,0.26492 2.11938,-1.85445 3.26738,-4.15045 1.148,-2.29599 1.148,-5.12183 z"
         style="fill:#ffffff"
         id="path4148"
         inkscape:connector-curvature="0" />
      <path
         d="m 136.69338,351.88703 0.61815,-1.41292 7.32952,0 7.50614,-12.80459 12.27474,-0.44154 -7.94767,13.24613 12.09813,0 -0.70646,1.41292 -12.18644,0 q -1.2363,2.11938 -3.44399,5.56337 -2.11938,3.44399 -4.23876,7.15291 -2.11938,3.70891 -3.70892,7.15291 -1.58953,3.44399 -1.58953,5.65168 0,1.50122 0.79477,2.20768 0.88307,0.70646 2.3843,0.70646 2.29599,0 4.85691,-1.2363 2.56092,-1.32461 5.12184,-3.35569 2.64922,-2.03107 5.03352,-4.50368 2.47261,-2.56092 4.59199,-5.03353 2.20769,-2.47261 3.97384,-4.59199 1.76615,-2.20768 2.82584,-3.5323 l 0.70646,0.35323 q -3.00245,3.5323 -6.35814,7.77106 -3.35568,4.23876 -7.24121,7.94768 -3.88553,3.62061 -8.38922,6.09322 -4.50368,2.3843 -9.80213,2.3843 -4.06214,0 -6.09322,-2.11938 -1.94276,-2.20769 -1.94276,-5.65168 0,-1.76615 0.44154,-3.44399 0.52984,-1.76615 1.76615,-4.23876 1.2363,-2.56092 3.26737,-6.18153 2.03108,-3.62061 5.21015,-9.09567 l -7.15291,0 z"
         style="fill:#ffffff"
         id="path4150"
         inkscape:connector-curvature="0" />
      <path
         d="m 186.67818,349.06119 q -0.61815,1.32461 -2.03107,3.62061 -1.41292,2.29599 -3.17907,5.03352 -1.76615,2.73754 -3.62061,5.73999 -1.85445,2.91415 -3.44399,5.65168 -1.50123,2.64923 -2.47261,4.85691 -0.97138,2.11938 -0.97138,3.26738 0,1.05969 0.44154,1.94277 0.44153,0.79476 1.58953,0.79476 1.76615,0 4.06215,-1.58953 2.3843,-1.58954 4.85691,-4.15045 2.47261,-2.56092 4.85691,-5.65168 2.3843,-3.17907 4.06215,-6.18153 l 6.97629,-12.27474 12.45136,-0.35323 q -4.59199,7.85937 -9.18398,15.3655 -4.59199,7.50614 -9.09568,14.74736 l 0.17662,0.17661 q 2.73753,-0.97138 6.35814,-3.17907 3.62061,-2.29599 7.41783,-5.29845 3.79722,-3.09076 7.41783,-6.71137 3.70891,-3.70891 6.44645,-7.50614 l 0.70646,0.52985 q -1.58954,2.20769 -4.50369,5.47506 -2.91414,3.26738 -6.79967,6.71137 -3.79723,3.35569 -8.38922,6.44645 -4.59199,3.09076 -9.53721,4.94522 -3.44399,6.35814 -7.77106,11.65659 -4.32706,5.29845 -9.62551,9.00737 -5.29845,3.79722 -11.56829,5.9166 -6.35814,2.11938 -13.86427,2.11938 -2.82584,0 -5.91661,-0.70646 -3.17907,-0.70646 -5.73999,-2.20769 -2.64922,-1.50122 -4.32706,-3.88553 -1.67785,-2.3843 -1.67785,-5.82829 0,-2.73753 1.32462,-4.85692 1.2363,-2.11938 3.26737,-3.5323 2.03108,-1.41292 4.59199,-2.11938 2.47261,-0.70646 4.85692,-0.70646 3.70891,0 7.59444,0.79477 l 0,0.79477 q -0.52984,-0.17662 -1.32461,-0.17662 -0.88307,0 -1.58953,0 -2.296,0 -3.79723,0.79477 -1.58953,0.88308 -2.47261,2.20769 -0.97138,1.41292 -1.41292,3.26738 -0.44154,1.85446 -0.44154,3.88553 0,5.29845 2.38431,8.2126 2.3843,3.00245 6.53475,3.00245 4.06215,0 7.85937,-2.11938 3.79722,-2.03107 7.15291,-5.38676 3.44399,-3.26737 6.53475,-7.50614 3.09077,-4.23876 5.8283,-8.65413 2.73753,-4.32707 5.12183,-8.38921 2.47261,-4.15046 4.59199,-7.15291 l -0.17661,-0.17662 q -1.67784,2.03108 -3.70892,4.32707 -1.94276,2.296 -4.41537,4.23876 -2.3843,1.85446 -5.21014,3.09076 -2.82584,1.23631 -6.09322,1.23631 -1.67784,0 -2.91415,-0.61815 -1.148,-0.61816 -1.94276,-1.67785 -0.79477,-1.05969 -1.148,-2.3843 -0.35323,-1.41292 -0.35323,-2.82584 0,-3.26738 1.50123,-6.62306 1.58953,-3.44399 3.6206,-6.71137 2.11938,-3.35569 4.23876,-6.35814 2.11938,-3.09076 3.35569,-5.65168 l 12.53966,-0.70646 z"
         style="fill:#ffffff"
         id="path4152"
         inkscape:connector-curvature="0" />
      <path
         d="m 251.77047,319.21325 q -8.83075,14.65905 -15.10058,24.81441 -6.26984,10.15536 -10.33198,17.04335 -3.97384,6.79968 -5.9166,10.86182 -1.85446,3.97384 -1.85446,6.35814 0,0.97138 0.52984,1.50123 0.61816,0.52984 1.32462,0.52984 2.03107,0 5.12183,-2.20768 3.09076,-2.296 6.35814,-5.65168 3.35569,-3.35569 6.44645,-7.15291 3.09076,-3.88553 5.12184,-7.0646 l 0.70646,0.35323 q -0.61816,0.88307 -2.03108,3.00245 -1.41292,2.11938 -3.5323,4.85692 -2.11938,2.64922 -4.7686,5.47506 -2.56092,2.82584 -5.47507,5.21014 -2.82584,2.38431 -5.9166,3.97384 -3.00246,1.50123 -6.00491,1.50123 -3.70892,0 -5.56337,-1.85446 -1.85446,-1.85446 -1.85446,-4.6803 0,-1.94276 0.61815,-4.06214 0.61815,-2.20769 1.94277,-5.12184 1.41292,-3.00245 3.6206,-6.97629 2.296,-4.06214 5.56338,-9.62552 3.35568,-5.56337 7.77106,-12.9812 4.50368,-7.41783 10.24367,-17.21996 l 12.9812,-0.88308 z"
         style="fill:#ffffff"
         id="path4154"
         inkscape:connector-curvature="0" />
      <path
         d="m 258.51219,349.76765 q -2.82584,4.50368 -5.56337,8.74244 -2.73753,4.23876 -4.85691,7.94768 -2.11938,3.6206 -3.44399,6.44644 -1.23631,2.82584 -1.23631,4.50369 0,1.2363 0.44154,2.11938 0.44154,0.79476 1.58953,0.79476 1.76615,0 3.79723,-1.2363 2.11938,-1.32461 4.32706,-3.26738 2.20769,-2.03107 4.41538,-4.50368 2.20769,-2.56092 4.15045,-4.94522 1.94277,-2.47261 3.44399,-4.59199 1.58954,-2.20769 2.56092,-3.5323 l 0.70646,0.26492 q -2.11938,3.00246 -5.29845,7.32952 -3.17907,4.23876 -7.15291,8.30091 -4.06214,4.15045 -7.50613,6.35814 -3.444,2.11938 -7.68276,2.11938 -3.6206,0 -5.47506,-2.03107 -1.85446,-2.11938 -1.85446,-5.8283 0,-3.97384 3.35569,-9.89044 3.44399,-6.00491 8.65413,-14.74735 l 12.62797,-0.35323 z m -4.50368,-13.77597 q 0,-2.56092 1.76615,-4.32707 1.85446,-1.85446 4.41538,-1.85446 2.56091,0 4.32706,1.85446 1.85446,1.76615 1.85446,4.32707 0,2.56092 -1.85446,4.41537 -1.76615,1.76615 -4.32706,1.76615 -2.56092,0 -4.41538,-1.76615 -1.76615,-1.85445 -1.76615,-4.41537 z"
         style="fill:#ffffff"
         id="path4156"
         inkscape:connector-curvature="0" />
      <path
         d="m 305.07647,358.77501 q -3.26738,4.85692 -6.97629,9.18398 -3.62061,4.32707 -8.12429,7.59445 -4.50368,3.26738 -10.06706,5.21014 -5.56337,1.85446 -12.71628,1.85446 -2.64922,0 -5.03353,-0.52985 -2.29599,-0.52984 -3.97383,-1.67784 -1.67785,-1.148 -2.64923,-2.91415 -0.97138,-1.85445 -0.97138,-4.32706 0,-3.26738 2.11938,-5.12184 2.03107,-1.94276 4.7686,-1.94276 1.85446,0 3.17908,1.05969 1.32461,1.05969 1.32461,3.17907 0,1.94276 -1.148,2.91414 -1.148,0.97139 -2.56092,0.97139 -1.05969,0 -1.76615,-0.26493 -0.44154,0.70646 -0.44154,1.67785 0,2.82584 1.50123,4.41537 1.50123,1.50123 4.41538,1.50123 3.79722,0 5.65168,-2.20769 1.85446,-2.20769 1.85446,-5.29845 0,-1.85446 -1.148,-3.62061 -1.148,-1.76615 -2.56092,-3.5323 -1.32461,-1.85445 -2.47261,-3.6206 -1.148,-1.85446 -1.148,-3.70892 0,-2.11938 0.97139,-4.06214 0.97138,-1.94277 2.82584,-3.444 1.94276,-1.58953 4.68029,-2.47261 2.73754,-0.88307 6.26984,-0.88307 5.12183,0 8.3009,1.76615 3.26738,1.67784 3.26738,4.94522 0,2.47261 -1.67784,4.06214 -1.67785,1.50123 -3.97384,1.50123 -2.03107,0 -3.79722,-1.05969 0.61815,-0.97138 0.97138,-2.03107 0.35323,-1.05969 0.35323,-2.3843 0,-2.20769 -1.05969,-3.97384 -0.97138,-1.76615 -3.26738,-1.76615 -2.03107,0 -3.17907,1.41292 -1.148,1.41292 -1.148,3.70891 0,2.20769 1.32462,4.15046 1.32461,1.85445 2.82584,3.70891 1.58953,1.85446 2.91414,3.88553 1.32462,2.03107 1.32462,4.59199 0,3.00246 -1.41292,5.12184 -1.32462,2.03107 -4.15046,3.6206 l 0.17662,0.17662 q 3.79722,-1.05969 7.41783,-3.26738 3.70891,-2.29599 7.0646,-5.29845 3.35568,-3.00245 6.18152,-6.44645 2.91415,-3.5323 5.12184,-7.0646 l 0.61815,0.70646 z"
         style="fill:#ffffff"
         id="path4158"
         inkscape:connector-curvature="0" />
      <path
         d="m 298.64796,351.88703 0.61815,-1.41292 7.32952,0 7.50614,-12.80459 12.27474,-0.44154 -7.94767,13.24613 12.09812,0 -0.70646,1.41292 -12.18643,0 q -1.23631,2.11938 -3.44399,5.56337 -2.11938,3.44399 -4.23876,7.15291 -2.11938,3.70891 -3.70892,7.15291 -1.58953,3.44399 -1.58953,5.65168 0,1.50122 0.79476,2.20768 0.88308,0.70646 2.38431,0.70646 2.29599,0 4.85691,-1.2363 2.56092,-1.32461 5.12183,-3.35569 2.64923,-2.03107 5.03353,-4.50368 2.47261,-2.56092 4.59199,-5.03353 2.20769,-2.47261 3.97384,-4.59199 1.76615,-2.20768 2.82584,-3.5323 l 0.70646,0.35323 q -3.00246,3.5323 -6.35814,7.77106 -3.35569,4.23876 -7.24122,7.94768 -3.88553,3.62061 -8.38921,6.09322 -4.50368,2.3843 -9.80213,2.3843 -4.06215,0 -6.09322,-2.11938 -1.94276,-2.20769 -1.94276,-5.65168 0,-1.76615 0.44153,-3.44399 0.52985,-1.76615 1.76615,-4.23876 1.23631,-2.56092 3.26738,-6.18153 2.03107,-3.62061 5.21014,-9.09567 l -7.1529,0 z"
         style="fill:#ffffff"
         id="path4160"
         inkscape:connector-curvature="0" />
    </g>
    <path
       style="opacity:0.96000001;fill:#ffffff;fill-opacity:1;stroke:none"
       d="m -1.4285366,305.93363 a 34.285489,34.285489 0 0 0 -34.2857514,34.28576 34.285489,34.285489 0 0 0 4.153326,16.29043 c -0.256768,-0.92634 -0.389632,-1.92051 -0.389632,-2.98808 0,-0.83294 0.08806,-1.68785 0.263414,-2.56462 0.219193,-0.87677 0.547583,-1.66655 0.985969,-2.36797 0.438386,-0.74526 1.008938,-1.33691 1.710354,-1.7753 0.701418,-0.48222 1.534316,-0.72347 2.498765,-0.72347 1.22748,0 2.235581,0.39443 3.024675,1.18354 0.832933,0.74525 1.249383,1.71024 1.249382,2.89387 0,1.18365 -0.329305,2.19174 -0.986883,3.02468 -0.657579,0.7891 -1.599636,1.22756 -2.827116,1.31524 -0.131515,0.48222 -0.219574,0.89867 -0.263414,1.24938 l 0,1.11768 c 0,0.83293 0.197218,1.73186 0.591765,2.69631 0.438386,0.92062 1.052052,1.77553 1.841147,2.56463 0.832932,0.78909 1.863962,1.44678 3.091443,1.97285 1.22748,0.48222 2.65203,0.70146 4.274057,0.65761 2.279606,-0.0439 4.230678,-0.43826 5.852706,-1.18352 1.6220284,-0.74526 2.9805334,-1.73226 4.0764974,-2.95974 1.139804,-1.27133 2.038747,-2.71788 2.696325,-4.33991 0.701417,-1.66586 1.227025,-3.3977 1.577734,-5.19508 0.394547,-1.84122 0.657808,-3.70425 0.789322,-5.58931 0.131518,-1.92889 0.197562,-3.76989 0.197562,-5.52343 0,-3.11254 0.35040403,-6.0497 1.05182103,-8.81153 0.745256,-2.80567 1.88544497,-5.23832 3.41979497,-7.29874 1.578188,-2.10425 3.5723754,-3.77005 5.9834977,-4.99752 2.4549609,-1.22748 5.4141349,-1.84207 8.8773799,-1.84207 1.183644,0 2.366947,0.1321 3.550586,0.39513 1.227482,0.26303 2.32364,0.70149 3.288092,1.31523 0.298042,0.16846 0.576975,0.35591 0.840542,0.55884 A 34.285489,34.285489 0 0 0 -1.4285366,305.93363 Z m 16.8895256,12.14444 c -1.665867,0 -3.024374,0.63567 -4.076499,1.907 -1.052126,1.22747 -1.8850245,2.91528 -2.4987648,5.06337 -0.6137394,2.14809 -1.0522027,4.6688 -1.3152348,7.56216 -0.2191933,2.8495 -0.3292655,5.91783 -0.3292655,9.20572 0,3.72629 -0.5256085,7.05788 -1.5777335,9.99505 -1.008288,2.93719 -2.520897,5.43589 -4.537471,7.4963 -1.97273597,2.01658 -4.427401,3.57322 -7.364585,4.66918 -2.893347,1.05213 -6.2258544,1.57773 -9.9959734,1.57773 -2.060412,0 -4.032585,-0.26234 -5.917644,-0.78841 -1.885058,-0.52606 -3.550854,-1.29383 -4.997528,-2.30211 -0.34684,-0.24174 -0.67646,-0.49793 -0.990542,-0.76738 A 34.285489,34.285489 0 0 0 -1.4285366,374.50422 34.285489,34.285489 0 0 0 32.8563,340.21939 34.285489,34.285489 0 0 0 28.026149,322.74816 c 0.12575,0.52532 0.192074,1.09337 0.192074,1.70852 0,1.40283 -0.372422,2.54211 -1.117676,3.41888 -0.701418,0.83294 -1.600361,1.49063 -2.696323,1.97286 -1.095966,0.43838 -2.279268,0.74567 -3.550586,0.92102 -1.271322,0.13152 -2.455538,0.19665 -3.551503,0.19665 1.052125,-0.92061 1.863011,-1.95072 2.43291,-3.09053 0.569903,-1.1398 0.855176,-2.41116 0.855181,-3.814 0,-1.66586 -0.41645,-3.0684 -1.249383,-4.2082 -0.789096,-1.18365 -2.082475,-1.77529 -3.879854,-1.77529 z"
       id="path3005"
       inkscape:connector-curvature="0" />
  </g>
</svg>
