<?xml version="1.0" encoding="UTF-8" standalone="no"?>
<svg
   xmlns:dc="http://purl.org/dc/elements/1.1/"
   xmlns:cc="http://creativecommons.org/ns#"
   xmlns:rdf="http://www.w3.org/1999/02/22-rdf-syntax-ns#"
   xmlns:svg="http://www.w3.org/2000/svg"
   xmlns="http://www.w3.org/2000/svg"
   version="1.1"
   id="svg2"
   height="146.42857"
   width="416.71588">
  <defs
     id="defs4" />
  <metadata
     id="metadata7">
    <rdf:RDF>
      <cc:Work
         rdf:about="">
        <dc:format>image/svg+xml</dc:format>
        <dc:type
           rdf:resource="http://purl.org/dc/dcmitype/StillImage" />
        <dc:title></dc:title>
      </cc:Work>
    </rdf:RDF>
  </metadata>
  <g
     transform="translate(80.714288,-279.50506)"
     id="layer1">
    <g
       id="text3001"
       style="font-style:normal;font-variant:normal;font-weight:900;font-stretch:normal;font-size:88.30750275px;line-height:473.00000191%;font-family:'Snell Roundhand';-inkscape-font-specification:'Snell Roundhand Heavy';text-align:start;letter-spacing:0px;word-spacing:0px;writing-mode:lr-tb;text-anchor:start;fill:#ffffff;fill-opacity:1;stroke:none">
      <path
         id="path4148"
         style="fill:#ffffff"
         d="m 144.4534,327.24924 q 0,-3.35569 -1.67784,-5.65168 -1.58954,-2.38431 -5.21015,-2.38431 -3.35568,0 -5.47506,2.56092 -2.11938,2.47261 -3.35569,6.79968 -1.2363,4.32707 -1.76615,10.15536 -0.44153,5.73999 -0.44153,12.36305 0,7.50614 -2.11938,13.42274 -2.03108,5.9166 -6.09322,10.06706 -3.97384,4.06214 -9.89044,6.26983 -5.8283,2.11938 -13.422742,2.11938 -4.150453,0 -7.947675,-1.05969 -3.797223,-1.05969 -6.711371,-3.09076 -2.914147,-2.03108 -4.680297,-5.03353 -1.76615,-3.00246 -1.76615,-6.97629 0,-1.67785 0.35323,-3.444 0.441537,-1.76615 1.324612,-3.17907 0.883075,-1.50122 2.295995,-2.3843 1.41292,-0.97138 3.355685,-0.97138 2.47261,0 4.062145,1.58953 1.677843,1.50123 1.677843,3.88553 0,2.38431 -1.324613,4.06215 -1.324612,1.58953 -3.797222,1.76615 -0.264923,0.97138 -0.35323,1.67784 0,0.70646 0,1.50123 0,1.67784 0.794767,3.62061 0.883075,1.85445 2.47261,3.44399 1.677843,1.58953 4.150453,2.64922 2.47261,0.97139 5.739988,0.88308 4.59199,-0.0883 7.859372,-1.58954 3.26737,-1.50122 5.47506,-3.97383 2.296,-2.56092 3.62061,-5.8283 1.41292,-3.35568 2.11938,-6.97629 0.79477,-3.70892 1.05969,-7.50614 0.26492,-3.88553 0.26492,-7.41783 0,-6.26983 1.41292,-11.8332 1.50123,-5.65168 4.59199,-9.80214 3.17907,-4.23876 8.03598,-6.71137 4.94522,-2.47261 11.92152,-2.47261 2.3843,0 4.7686,0.52985 2.47261,0.52984 4.41538,1.76615 2.03107,1.148 3.26737,3.09076 1.23631,1.85446 1.23631,4.59199 0,2.82584 -1.50123,4.59199 -1.41292,1.67784 -3.62061,2.64923 -2.20768,0.88307 -4.7686,1.2363 -2.56092,0.26492 -4.76861,0.26492 2.11938,-1.85445 3.26738,-4.15045 1.148,-2.29599 1.148,-5.12183 z" />
      <path
         id="path4150"
         style="fill:#ffffff"
         d="m 136.69338,351.88703 0.61815,-1.41292 7.32952,0 7.50614,-12.80459 12.27474,-0.44154 -7.94767,13.24613 12.09813,0 -0.70646,1.41292 -12.18644,0 q -1.2363,2.11938 -3.44399,5.56337 -2.11938,3.44399 -4.23876,7.15291 -2.11938,3.70891 -3.70892,7.15291 -1.58953,3.44399 -1.58953,5.65168 0,1.50122 0.79477,2.20768 0.88307,0.70646 2.3843,0.70646 2.29599,0 4.85691,-1.2363 2.56092,-1.32461 5.12184,-3.35569 2.64922,-2.03107 5.03352,-4.50368 2.47261,-2.56092 4.59199,-5.03353 2.20769,-2.47261 3.97384,-4.59199 1.76615,-2.20768 2.82584,-3.5323 l 0.70646,0.35323 q -3.00245,3.5323 -6.35814,7.77106 -3.35568,4.23876 -7.24121,7.94768 -3.88553,3.62061 -8.38922,6.09322 -4.50368,2.3843 -9.80213,2.3843 -4.06214,0 -6.09322,-2.11938 -1.94276,-2.20769 -1.94276,-5.65168 0,-1.76615 0.44154,-3.44399 0.52984,-1.76615 1.76615,-4.23876 1.2363,-2.56092 3.26737,-6.18153 2.03108,-3.62061 5.21015,-9.09567 l -7.15291,0 z" />
      <path
         id="path4152"
         style="fill:#ffffff"
         d="m 186.67818,349.06119 q -0.61815,1.32461 -2.03107,3.62061 -1.41292,2.29599 -3.17907,5.03352 -1.76615,2.73754 -3.62061,5.73999 -1.85445,2.91415 -3.44399,5.65168 -1.50123,2.64923 -2.47261,4.85691 -0.97138,2.11938 -0.97138,3.26738 0,1.05969 0.44154,1.94277 0.44153,0.79476 1.58953,0.79476 1.76615,0 4.06215,-1.58953 2.3843,-1.58954 4.85691,-4.15045 2.47261,-2.56092 4.85691,-5.65168 2.3843,-3.17907 4.06215,-6.18153 l 6.97629,-12.27474 12.45136,-0.35323 q -4.59199,7.85937 -9.18398,15.3655 -4.59199,7.50614 -9.09568,14.74736 l 0.17662,0.17661 q 2.73753,-0.97138 6.35814,-3.17907 3.62061,-2.29599 7.41783,-5.29845 3.79722,-3.09076 7.41783,-6.71137 3.70891,-3.70891 6.44645,-7.50614 l 0.70646,0.52985 q -1.58954,2.20769 -4.50369,5.47506 -2.91414,3.26738 -6.79967,6.71137 -3.79723,3.35569 -8.38922,6.44645 -4.59199,3.09076 -9.53721,4.94522 -3.44399,6.35814 -7.77106,11.65659 -4.32706,5.29845 -9.62551,9.00737 -5.29845,3.79722 -11.56829,5.9166 -6.35814,2.11938 -13.86427,2.11938 -2.82584,0 -5.91661,-0.70646 -3.17907,-0.70646 -5.73999,-2.20769 -2.64922,-1.50122 -4.32706,-3.88553 -1.67785,-2.3843 -1.67785,-5.82829 0,-2.73753 1.32462,-4.85692 1.2363,-2.11938 3.26737,-3.5323 2.03108,-1.41292 4.59199,-2.11938 2.47261,-0.70646 4.85692,-0.70646 3.70891,0 7.59444,0.79477 l 0,0.79477 q -0.52984,-0.17662 -1.32461,-0.17662 -0.88307,0 -1.58953,0 -2.296,0 -3.79723,0.79477 -1.58953,0.88308 -2.47261,2.20769 -0.97138,1.41292 -1.41292,3.26738 -0.44154,1.85446 -0.44154,3.88553 0,5.29845 2.38431,8.2126 2.3843,3.00245 6.53475,3.00245 4.06215,0 7.85937,-2.11938 3.79722,-2.03107 7.15291,-5.38676 3.44399,-3.26737 6.53475,-7.50614 3.09077,-4.23876 5.8283,-8.65413 2.73753,-4.32707 5.12183,-8.38921 2.47261,-4.15046 4.59199,-7.15291 l -0.17661,-0.17662 q -1.67784,2.03108 -3.70892,4.32707 -1.94276,2.296 -4.41537,4.23876 -2.3843,1.85446 -5.21014,3.09076 -2.82584,1.23631 -6.09322,1.23631 -1.67784,0 -2.91415,-0.61815 -1.148,-0.61816 -1.94276,-1.67785 -0.79477,-1.05969 -1.148,-2.3843 -0.35323,-1.41292 -0.35323,-2.82584 0,-3.26738 1.50123,-6.62306 1.58953,-3.44399 3.6206,-6.71137 2.11938,-3.35569 4.23876,-6.35814 2.11938,-3.09076 3.35569,-5.65168 l 12.53966,-0.70646 z" />
      <path
         id="path4154"
         style="fill:#ffffff"
         d="m 251.77047,319.21325 q -8.83075,14.65905 -15.10058,24.81441 -6.26984,10.15536 -10.33198,17.04335 -3.97384,6.79968 -5.9166,10.86182 -1.85446,3.97384 -1.85446,6.35814 0,0.97138 0.52984,1.50123 0.61816,0.52984 1.32462,0.52984 2.03107,0 5.12183,-2.20768 3.09076,-2.296 6.35814,-5.65168 3.35569,-3.35569 6.44645,-7.15291 3.09076,-3.88553 5.12184,-7.0646 l 0.70646,0.35323 q -0.61816,0.88307 -2.03108,3.00245 -1.41292,2.11938 -3.5323,4.85692 -2.11938,2.64922 -4.7686,5.47506 -2.56092,2.82584 -5.47507,5.21014 -2.82584,2.38431 -5.9166,3.97384 -3.00246,1.50123 -6.00491,1.50123 -3.70892,0 -5.56337,-1.85446 -1.85446,-1.85446 -1.85446,-4.6803 0,-1.94276 0.61815,-4.06214 0.61815,-2.20769 1.94277,-5.12184 1.41292,-3.00245 3.6206,-6.97629 2.296,-4.06214 5.56338,-9.62552 3.35568,-5.56337 7.77106,-12.9812 4.50368,-7.41783 10.24367,-17.21996 l 12.9812,-0.88308 z" />
      <path
         id="path4156"
         style="fill:#ffffff"
         d="m 258.51219,349.76765 q -2.82584,4.50368 -5.56337,8.74244 -2.73753,4.23876 -4.85691,7.94768 -2.11938,3.6206 -3.44399,6.44644 -1.23631,2.82584 -1.23631,4.50369 0,1.2363 0.44154,2.11938 0.44154,0.79476 1.58953,0.79476 1.76615,0 3.79723,-1.2363 2.11938,-1.32461 4.32706,-3.26738 2.20769,-2.03107 4.41538,-4.50368 2.20769,-2.56092 4.15045,-4.94522 1.94277,-2.47261 3.44399,-4.59199 1.58954,-2.20769 2.56092,-3.5323 l 0.70646,0.26492 q -2.11938,3.00246 -5.29845,7.32952 -3.17907,4.23876 -7.15291,8.30091 -4.06214,4.15045 -7.50613,6.35814 -3.444,2.11938 -7.68276,2.11938 -3.6206,0 -5.47506,-2.03107 -1.85446,-2.11938 -1.85446,-5.8283 0,-3.97384 3.35569,-9.89044 3.44399,-6.00491 8.65413,-14.74735 l 12.62797,-0.35323 z m -4.50368,-13.77597 q 0,-2.56092 1.76615,-4.32707 1.85446,-1.85446 4.41538,-1.85446 2.56091,0 4.32706,1.85446 1.85446,1.76615 1.85446,4.32707 0,2.56092 -1.85446,4.41537 -1.76615,1.76615 -4.32706,1.76615 -2.56092,0 -4.41538,-1.76615 -1.76615,-1.85445 -1.76615,-4.41537 z" />
      <path
         id="path4158"
         style="fill:#ffffff"
         d="m 305.07647,358.77501 q -3.26738,4.85692 -6.97629,9.18398 -3.62061,4.32707 -8.12429,7.59445 -4.50368,3.26738 -10.06706,5.21014 -5.56337,1.85446 -12.71628,1.85446 -2.64922,0 -5.03353,-0.52985 -2.29599,-0.52984 -3.97383,-1.67784 -1.67785,-1.148 -2.64923,-2.91415 -0.97138,-1.85445 -0.97138,-4.32706 0,-3.26738 2.11938,-5.12184 2.03107,-1.94276 4.7686,-1.94276 1.85446,0 3.17908,1.05969 1.32461,1.05969 1.32461,3.17907 0,1.94276 -1.148,2.91414 -1.148,0.97139 -2.56092,0.97139 -1.05969,0 -1.76615,-0.26493 -0.44154,0.70646 -0.44154,1.67785 0,2.82584 1.50123,4.41537 1.50123,1.50123 4.41538,1.50123 3.79722,0 5.65168,-2.20769 1.85446,-2.20769 1.85446,-5.29845 0,-1.85446 -1.148,-3.62061 -1.148,-1.76615 -2.56092,-3.5323 -1.32461,-1.85445 -2.47261,-3.6206 -1.148,-1.85446 -1.148,-3.70892 0,-2.11938 0.97139,-4.06214 0.97138,-1.94277 2.82584,-3.444 1.94276,-1.58953 4.68029,-2.47261 2.73754,-0.88307 6.26984,-0.88307 5.12183,0 8.3009,1.76615 3.26738,1.67784 3.26738,4.94522 0,2.47261 -1.67784,4.06214 -1.67785,1.50123 -3.97384,1.50123 -2.03107,0 -3.79722,-1.05969 0.61815,-0.97138 0.97138,-2.03107 0.35323,-1.05969 0.35323,-2.3843 0,-2.20769 -1.05969,-3.97384 -0.97138,-1.76615 -3.26738,-1.76615 -2.03107,0 -3.17907,1.41292 -1.148,1.41292 -1.148,3.70891 0,2.20769 1.32462,4.15046 1.32461,1.85445 2.82584,3.70891 1.58953,1.85446 2.91414,3.88553 1.32462,2.03107 1.32462,4.59199 0,3.00246 -1.41292,5.12184 -1.32462,2.03107 -4.15046,3.6206 l 0.17662,0.17662 q 3.79722,-1.05969 7.41783,-3.26738 3.70891,-2.29599 7.0646,-5.29845 3.35568,-3.00245 6.18152,-6.44645 2.91415,-3.5323 5.12184,-7.0646 l 0.61815,0.70646 z" />
      <path
         id="path4160"
         style="fill:#ffffff"
         d="m 298.64796,351.88703 0.61815,-1.41292 7.32952,0 7.50614,-12.80459 12.27474,-0.44154 -7.94767,13.24613 12.09812,0 -0.70646,1.41292 -12.18643,0 q -1.23631,2.11938 -3.44399,5.56337 -2.11938,3.44399 -4.23876,7.15291 -2.11938,3.70891 -3.70892,7.15291 -1.58953,3.44399 -1.58953,5.65168 0,1.50122 0.79476,2.20768 0.88308,0.70646 2.38431,0.70646 2.29599,0 4.85691,-1.2363 2.56092,-1.32461 5.12183,-3.35569 2.64923,-2.03107 5.03353,-4.50368 2.47261,-2.56092 4.59199,-5.03353 2.20769,-2.47261 3.97384,-4.59199 1.76615,-2.20768 2.82584,-3.5323 l 0.70646,0.35323 q -3.00246,3.5323 -6.35814,7.77106 -3.35569,4.23876 -7.24122,7.94768 -3.88553,3.62061 -8.38921,6.09322 -4.50368,2.3843 -9.80213,2.3843 -4.06215,0 -6.09322,-2.11938 -1.94276,-2.20769 -1.94276,-5.65168 0,-1.76615 0.44153,-3.44399 0.52985,-1.76615 1.76615,-4.23876 1.23631,-2.56092 3.26738,-6.18153 2.03107,-3.62061 5.21014,-9.09567 l -7.1529,0 z" />
    </g>
    <path
       id="path3005"
       transform="translate(-80.714288,279.50506)"
       d="M 73.214844 0 A 73.214284 73.214284 0 0 0 0 73.214844 A 73.214284 73.214284 0 0 0 8.8691406 108.00195 C 8.3208296 106.0238 8.0371094 103.90082 8.0371094 101.62109 C 8.0371094 99.842423 8.2251524 98.016816 8.5996094 96.144531 C 9.0676806 94.272246 9.7689356 92.585719 10.705078 91.087891 C 11.641221 89.496448 12.859594 88.233017 14.357422 87.296875 C 15.85525 86.267118 17.633846 85.751953 19.693359 85.751953 C 22.314558 85.751953 24.467287 86.59424 26.152344 88.279297 C 27.931014 89.870739 28.820313 91.9314 28.820312 94.458984 C 28.820312 96.986569 28.117104 99.139298 26.712891 100.91797 C 25.308677 102.60303 23.29698 103.53933 20.675781 103.72656 C 20.394939 104.75632 20.206895 105.64562 20.113281 106.39453 L 20.113281 108.78125 C 20.113281 110.55992 20.534425 112.47955 21.376953 114.53906 C 22.313096 116.50496 23.623537 118.33057 25.308594 120.01562 C 27.087264 121.70068 29.288957 123.10514 31.910156 124.22852 C 34.531355 125.25827 37.573382 125.72643 41.037109 125.63281 C 45.90505 125.5392 50.071429 124.69691 53.535156 123.10547 C 56.998883 121.51403 59.899878 119.40636 62.240234 116.78516 C 64.674205 114.07034 66.593833 110.98131 67.998047 107.51758 C 69.495875 103.96024 70.618274 100.26201 71.367188 96.423828 C 72.209716 92.49203 72.771892 88.513694 73.052734 84.488281 C 73.333577 80.369254 73.474609 76.437929 73.474609 72.693359 C 73.474609 66.046748 74.222875 59.774651 75.720703 53.876953 C 77.312145 47.885641 79.746939 42.690885 83.023438 38.291016 C 86.39355 33.797532 90.651998 30.24034 95.800781 27.619141 C 101.04318 24.997942 107.36229 23.685547 114.75781 23.685547 C 117.2854 23.685547 119.81226 23.967611 122.33984 24.529297 C 124.96104 25.090982 127.30181 26.027291 129.36133 27.337891 C 129.99778 27.697623 130.59342 28.097901 131.15625 28.53125 A 73.214284 73.214284 0 0 0 73.214844 0 z M 109.28125 25.933594 C 105.72391 25.933594 102.82291 27.291046 100.57617 30.005859 C 98.32943 32.627058 96.550834 36.231261 95.240234 40.818359 C 93.929635 45.405458 92.993326 50.788257 92.431641 56.966797 C 91.963569 63.051723 91.728516 69.603931 91.728516 76.625 C 91.728516 84.582211 90.606117 91.696595 88.359375 97.96875 C 86.206247 104.2409 82.976177 109.57669 78.669922 113.97656 C 74.457281 118.28282 69.215514 121.60691 62.943359 123.94727 C 56.764819 126.19401 49.648482 127.31641 41.597656 127.31641 C 37.197787 127.31641 32.98635 126.75618 28.960938 125.63281 C 24.935525 124.50944 21.378333 122.86992 18.289062 120.7168 C 17.548409 120.20058 16.844529 119.65353 16.173828 119.07812 A 73.214284 73.214284 0 0 0 73.214844 146.42773 A 73.214284 73.214284 0 0 0 146.42773 73.214844 A 73.214284 73.214284 0 0 0 136.11328 35.90625 C 136.38181 37.028046 136.52344 38.241086 136.52344 39.554688 C 136.52344 42.550343 135.72816 44.983184 134.13672 46.855469 C 132.63889 48.634139 130.71926 50.038603 128.37891 51.068359 C 126.03855 52.004502 123.51169 52.660699 120.79688 53.035156 C 118.08206 53.315999 115.55325 53.455078 113.21289 53.455078 C 115.45963 51.489179 117.19122 49.289439 118.4082 46.855469 C 119.62519 44.421498 120.23437 41.706593 120.23438 38.710938 C 120.23438 35.153596 119.34508 32.15858 117.56641 29.724609 C 115.88135 27.197025 113.11943 25.933594 109.28125 25.933594 z "
       style="opacity:0.96000001;fill:#ffffff;fill-opacity:1;stroke:none" />
  </g>
</svg>
